Coordinates
version=1
nRows=8
nColumns=36
inDegrees=yes

Units are S.I. units (second, meters, Newtons, ...)
If the header above contains a line with 'inDegrees', this indicates whether rotational values are in degrees (yes) or radians (no).

endheader
time	pelvis_tilt	pelvis_list	pelvis_rotation	pelvis_tx	pelvis_ty	pelvis_tz	hip_flexion_r	hip_adduction_r	hip_rotation_r	knee_angle_r	knee_angle_r_beta	ankle_angle_r	subtalar_angle_r	mtp_angle_r	hip_flexion_l	hip_adduction_l	hip_rotation_l	knee_angle_l	knee_angle_l_beta	ankle_angle_l	subtalar_angle_l	mtp_angle_l	lumbar_extension	lumbar_bending	lumbar_rotation	arm_flex_r	arm_add_r	arm_rot_r	elbow_flex_r	pro_sup_r	arm_flex_l	arm_add_l	arm_rot_l	elbow_flex_l	pro_sup_l
      0.00000000	     -1.88958926	     -5.24748336	     22.01008805	     -0.02466476	      1.20098860	      0.05491014	      6.28160456	      1.10910457	     -3.63898376	     11.15578323	      0.19470515	     13.46468745	     -8.41988591	     -6.22249584	     11.67858842	     -0.82445268	      0.63964496	     15.42443263	      0.26920713	      4.29370166	    -16.66134397	     -6.22249584	      1.56418062	      2.85328997	      0.42525003	     -1.67333221	     -4.37087632	      4.17490485	     27.23224652	     79.11893765	      5.69231391	     -4.66448886	     14.13625752	     20.82783966	     72.83882865
      0.01666670	     -0.95242895	     -4.15569378	     21.43676604	     -0.02528841	      1.20462448	      0.05626417	      5.60495198	      0.56260195	     -3.18569024	     11.94499272	      0.20847945	     14.96405439	     -8.44616802	     -6.77318752	     10.74895022	      0.27678430	      0.03118078	     16.57744049	      0.28933092	      5.10463389	    -19.38555629	     -6.77318752	     -0.00735697	      2.51738145	      0.24794442	     -0.93754090	     -3.73424394	     -0.18572758	     27.02569544	     84.85753233	      5.54170139	     -3.66313963	      5.57194544	     21.88212098	     77.48822136
      0.03333330	     -0.94104956	     -2.89198116	     20.48080150	     -0.02559633	      1.20273957	      0.05747017	      5.03934825	     -0.65981932	     -2.97945998	     11.68447308	      0.20393253	     15.13255679	     -8.42163392	     -6.93005793	     10.18298201	      1.51250607	     -1.15307210	     16.60427284	      0.28979923	      6.61109298	    -18.75734385	     -6.93005793	     -0.72353024	      1.19231115	      1.09227136	     -0.85334607	     -2.93512766	     -1.89545560	     27.66631787	     81.95558524	      5.51086876	     -3.50389862	      4.10879245	     22.58433011	     75.03260298
      0.05000000	     -0.57537965	     -2.15686312	     19.74676956	     -0.02598076	      1.20488740	      0.05867436	      4.52394947	     -1.38113068	     -2.93990962	     11.65386759	      0.20339836	     15.40089429	     -7.67542333	     -7.16851301	      9.21017548	      2.03858900	     -1.88121045	     16.00507224	      0.27934121	      7.18292002	    -18.28567562	     -7.16851301	     -1.57702497	      0.69017662	      2.02236438	     -1.25378422	     -1.82688767	     -8.79508921	     28.84327258	     90.38880011	      5.65591267	     -3.00322146	     -0.53538225	     22.87626818	     78.76012087
      0.06666670	     -0.16417731	     -1.71451496	     19.07638962	     -0.02621795	      1.20598090	      0.05947335	      4.00257044	     -1.70970454	     -2.61567510	     11.54941713	      0.20157536	     15.22931437	     -7.21744354	     -7.19059095	      8.26271506	      2.31046069	     -2.48859849	     15.59631708	      0.27220708	      7.46218564	    -18.07775958	     -7.19059095	     -2.32156124	      0.50521173	      2.59565802	     -1.22725481	     -1.81772660	     -8.94282226	     29.32507931	     89.41471483	      5.68064972	     -2.96888335	     -1.25537864	     23.12231754	     78.01131006
      0.08333330	      0.15968995	     -1.48140401	     18.38744408	     -0.02625606	      1.20709715	      0.06050398	      3.65305208	     -1.80450927	     -2.28483545	     11.45101833	      0.19985797	     14.91552292	     -6.77039162	     -7.21307340	      7.56606301	      2.35323792	     -3.21815621	     15.29740684	      0.26699012	      7.41850380	    -17.88429644	     -7.21307340	     -2.82832907	      0.49222706	      3.27018122	     -1.21306410	     -1.85152174	     -8.91106616	     29.73484350	     88.53926044	      5.74553492	     -2.79629263	     -2.05223483	     23.47001551	     77.41500389
      0.10000000	      0.38783041	     -1.44321489	     17.77064590	     -0.02630027	      1.20720223	      0.06098524	      3.52702057	     -1.73040233	     -2.01365370	     11.54434447	      0.20148682	     14.74335236	     -6.50522313	     -7.22701596	      7.08584435	      2.26492755	     -3.64277738	     15.03010011	      0.26232473	      7.21778298	    -18.10315155	     -7.22701596	     -3.12506305	      0.61925382	      3.96922123	     -1.19113507	     -2.01708469	     -8.68607353	     30.17651710	     88.01843267	      5.92538196	     -2.50738964	     -2.95052602	     23.45322422	     76.69823613
      0.11666670	      0.60971427	     -1.38666007	     17.22164607	     -0.02622890	      1.20802444	      0.06178291	      3.38573569	     -1.69260551	     -1.53679172	     11.57483034	      0.20201890	     14.34287405	     -6.46847443	     -7.25687302	      6.68674160	      2.17680982	     -4.32534755	     14.87225517	      0.25956982	      6.94270673	    -17.95157737	     -7.25687302	     -3.50236399	      0.68250148	      4.55883463	     -1.15040504	     -2.09629947	     -8.34440592	     30.58212218	     86.76196081	      5.95581192	     -2.23259936	     -3.83488631	     23.79479229	     75.64401877
